<svg xmlns="http://www.w3.org/2000/svg" viewBox="0 0 29.55 618.69"><defs><style>.cls-1{fill:#fff;}</style></defs><g id="Layer_2" data-name="Layer 2"><g id="Слой_3" data-name="Слой 3"><path class="cls-1" d="M29.32,277.65v-5.73a2.18,2.18,0,0,0-2.18-2.17H2.35a2.17,2.17,0,0,0-2.17,2.17v5.73a2.19,2.19,0,0,0,1.45,2l.46.16v16.86a2.18,2.18,0,0,0,2.17,2.18h21a2.18,2.18,0,0,0,2.17-2.18V279.85l.45-.16A2.2,2.2,0,0,0,29.32,277.65Zm-3.4,2.86V297.4H3.57V279.82H25.92Zm1.91-8.59v6.41H1.66v-7.09H27.83Z"/><rect class="cls-1" x="11.62" y="285.01" width="6.25" height="1.48"/><path class="cls-1" d="M7.08,64.81a.86.86,0,0,0,.75.43H20.05a.85.85,0,0,0,.73-1.3l-6.11-10a.83.83,0,0,0-.73-.41.85.85,0,0,0-.73.41l-6.11,10A.87.87,0,0,0,7.08,64.81Zm3.15-2.46,3.13-5.1.58-1,.59,1,3.11,5.09.64,1H9.58Z"/><path class="cls-1" d="M.12,71.79V81a1.14,1.14,0,0,0,1.14,1.14H10.5A1.14,1.14,0,0,0,11.64,81V71.79a1.14,1.14,0,0,0-1.14-1.14H1.26A1.14,1.14,0,0,0,.12,71.79ZM2,79.64V72.5H9.79v7.82H2Z"/><path class="cls-1" d="M22.1,82.94a5.53,5.53,0,0,0,.71,0,6.57,6.57,0,0,0,6.53-7.28,6.65,6.65,0,0,0-5.82-5.82c-.24,0-.48,0-.71,0A6.6,6.6,0,0,0,17.93,72a6.53,6.53,0,0,0-1.65,5.11A6.63,6.63,0,0,0,22.1,82.94Zm-3.84-7.8a4.66,4.66,0,0,1,3.28-3.28,5,5,0,0,1,1.27-.17,4.67,4.67,0,0,1,3.74,1.85,4.74,4.74,0,0,1,.81,4.14A4.66,4.66,0,0,1,24.08,81a5,5,0,0,1-1.27.17,4.68,4.68,0,0,1-3.74-1.84A4.75,4.75,0,0,1,18.26,75.14Z"/><path class="cls-1" d="M8.66,137.93a2.43,2.43,0,1,0-2.41-2.43A2.43,2.43,0,0,0,8.66,137.93Z"/><path class="cls-1" d="M8.66,130.14H26.5a.17.17,0,0,0,.17-.17v-1.4a.16.16,0,0,0-.17-.17H10.11a1.54,1.54,0,0,1-1.33-.76,1.52,1.52,0,0,1,0-1.53l.57-1a2.23,2.23,0,0,1,2-1.16H22a2.42,2.42,0,0,0,2.12-1.25l5.37-10.17a.18.18,0,0,0-.07-.23l-1.23-.67-.08,0a.17.17,0,0,0-.15.09l-5.12,9.68a1.53,1.53,0,0,1-1.36.83H11.59a1.56,1.56,0,0,1-1.4-.89L4,108.24a.18.18,0,0,0-.15-.1H.17a.18.18,0,0,0-.17.17v1.4a.17.17,0,0,0,.17.17H1.89a1.55,1.55,0,0,1,1.39.88L8.47,121.7a1.56,1.56,0,0,1,0,1.41l-1.89,3.42a2.43,2.43,0,0,0,0,2.42A2.39,2.39,0,0,0,8.66,130.14Z"/><path class="cls-1" d="M16.45,119.23a.87.87,0,1,0-.87-.87A.87.87,0,0,0,16.45,119.23Z"/><path class="cls-1" d="M16.45,106.58a.87.87,0,0,0-.87.87v4.68a.87.87,0,0,0,1.74,0v-4.68A.87.87,0,0,0,16.45,106.58Z"/><path class="cls-1" d="M24.24,137.93a2.43,2.43,0,1,0-2.41-2.43A2.43,2.43,0,0,0,24.24,137.93Z"/><path class="cls-1" d="M20.06,350.6h9.23a0,0,0,0,0,0,0V339.8a0,0,0,0,0,0,0H20.06a0,0,0,0,0,0,0v3.12a1.42,1.42,0,0,1-1.42,1.42H17a1.41,1.41,0,0,1-1.41-1.42V332.17A1.41,1.41,0,0,1,17,330.75h1.6A1.42,1.42,0,0,1,20,332.17v3.12a0,0,0,0,0,0,0h9.23a0,0,0,0,0,0,0V324.53a0,0,0,0,0,0,0H20.06a0,0,0,0,0,0,0v3.13a1.42,1.42,0,0,1-1.42,1.41H10.89a1.41,1.41,0,0,1-1.41-1.41v-3.13a0,0,0,0,0,0,0H.21a0,0,0,0,0,0,0v10.76a0,0,0,0,0,0,0H9.44a0,0,0,0,0,0,0v-3.12a1.41,1.41,0,0,1,1.41-1.42h1.6a1.42,1.42,0,0,1,1.42,1.42V346a0,0,0,0,0,0,0H18.6A1.42,1.42,0,0,1,20,347.43v3.13A0,0,0,0,0,20.06,350.6ZM7.8,332.83a.82.82,0,0,1-.82.82H2.66a.81.81,0,0,1-.81-.82V327a.82.82,0,0,1,.81-.82H7a.82.82,0,0,1,.82.82Z"/><path class="cls-1" d="M16.5,449.52h4.4v-1.95h-5a.21.21,0,0,1-.21-.21v-5.25H13.84v5.25a.21.21,0,0,1-.21.21h-5v1.95h5a.21.21,0,0,1,.21.21V455h1.82v-5.25a.21.21,0,0,1,.21-.21Z"/><path class="cls-1" d="M27.89,436.16l-10-10.41H4.26a2.73,2.73,0,0,0-2.66,2.8v29.09a2.72,2.72,0,0,0,2.64,2.79h21a2.73,2.73,0,0,0,2.65-2.79Zm-1.81,1.48v20.62a.21.21,0,0,1-.21.21H3.63a.21.21,0,0,1-.21-.21V427.92a.21.21,0,0,1,.21-.21h13.5a.21.21,0,0,1,.21.21v8.88h8.53a.21.21,0,0,1,.21.21Z"/><path class="cls-1" d="M14.75,511.25a14.61,14.61,0,1,1,14.61-14.61A14.62,14.62,0,0,1,14.75,511.25Zm0-26.91a12.31,12.31,0,1,0,12.3,12.3A12.32,12.32,0,0,0,14.75,484.34Zm-1,22.43v-1.86l-.27-.06A5.66,5.66,0,0,1,9.34,501l1.84-.75a4.08,4.08,0,0,0,3.81,3c1.59,0,3.3-.86,3.3-2.75,0-1.73-1.33-2.54-3.64-3.36l-.33-.12c-1.67-.59-4.45-1.57-4.45-4.5a4.24,4.24,0,0,1,3.65-4.09l.27-.06v-1.82h1.93v1.81l.28.05a4.77,4.77,0,0,1,3.6,2.81l-1.73.74a3.24,3.24,0,0,0-3-1.9c-1.18,0-3.05.66-3.05,2.43s1.59,2.3,4.18,3.16c3.77,1.31,4.26,3.17,4.25,4.82,0,3.38-3,4.26-4.23,4.48l-.29.05v1.8Z"/><path class="cls-1" d="M5.37,397.7H24.13v-1.79c0-3.51-6-5.27-9.38-5.27s-9.38,1.76-9.38,5.27Zm1.86-2.6.74-.61a12.63,12.63,0,0,1,6.78-2.08,12.48,12.48,0,0,1,6.77,2.08l.75.61a.46.46,0,0,1-.29.81H7.53a.47.47,0,0,1-.44-.3A.49.49,0,0,1,7.23,395.1Z"/><path class="cls-1" d="M14.75,379.84A4.29,4.29,0,1,0,19,384.13,4.29,4.29,0,0,0,14.75,379.84Zm0,6.79a2.5,2.5,0,1,1,2.5-2.5A2.5,2.5,0,0,1,14.75,386.63Z"/><path class="cls-1" d="M29.22,376.79a2.59,2.59,0,0,0-2.59-2.59H2.87a2.59,2.59,0,0,0-2.59,2.59v23.76a2.6,2.6,0,0,0,2.59,2.6H26.63a2.6,2.6,0,0,0,2.59-2.6ZM27.43,400.9a.46.46,0,0,1-.46.46H2.52a.46.46,0,0,1-.45-.46V376.45a.46.46,0,0,1,.45-.46H27a.46.46,0,0,1,.46.46Z"/><path class="cls-1" d="M15.85,598.18a5.92,5.92,0,0,0-1.1-.1,5.59,5.59,0,0,0-5.49,6.69,5.55,5.55,0,0,0,4.39,4.39,5.85,5.85,0,0,0,1.1.1,5.59,5.59,0,0,0,1.1-11.08Zm2.59,6.52a3.82,3.82,0,0,1-2.66,2.66,4.06,4.06,0,0,1-1,.14,3.83,3.83,0,0,1-1-7.52,4.06,4.06,0,0,1,1-.14,3.84,3.84,0,0,1,3.69,4.86Z"/><path class="cls-1" d="M29.3,608.34l-2-1.58a3.79,3.79,0,0,1-1.44-3l.35,0s0,0,0,0h-.34a3.79,3.79,0,0,1,1.44-3l2-1.59a.1.1,0,0,0,0-.13l-3.13-5.42a.1.1,0,0,0-.09-.05l-2.42,1a3.5,3.5,0,0,1-1.36.26,4,4,0,0,1-2-.55,3.84,3.84,0,0,1-1.95-2.78L18,588.73a.09.09,0,0,0-.09-.07H11.61a.1.1,0,0,0-.09.05l-.37,2.58a3.83,3.83,0,0,1-1.91,2.76,4.05,4.05,0,0,1-2,.58,3.6,3.6,0,0,1-1.37-.27l-2.41-1h0a.09.09,0,0,0-.08,0L.18,598.88a.08.08,0,0,0,0,.12l2,1.59a3.79,3.79,0,0,1,1.44,3l-.35,0s0,0,0,0h.34a3.79,3.79,0,0,1-1.44,3l-2,1.58a.14.14,0,0,0,0,.14l3.14,5.41a.1.1,0,0,0,.09.05l2.42-1a3.7,3.7,0,0,1,1.36-.26,4,4,0,0,1,2,.55,3.84,3.84,0,0,1,2,2.78l.37,2.57a.09.09,0,0,0,.09.07h6.28a.09.09,0,0,0,.09-.06l.37-2.58a3.84,3.84,0,0,1,1.9-2.76,4.11,4.11,0,0,1,2.05-.58,3.6,3.6,0,0,1,1.37.27l2.41,1h0a.09.09,0,0,0,.08,0l3.14-5.44A.09.09,0,0,0,29.3,608.34Zm-2.79,1.48-.56,1a1.32,1.32,0,0,1-1.62.56l-1.5-.6-1.27-.52-1.1.84a10,10,0,0,1-2.12,1.23l-1.3.53-.2,1.38-.23,1.59a1.32,1.32,0,0,1-1.3,1.12H14.19a1.31,1.31,0,0,1-1.3-1.13l-.22-1.58-.19-1.38-1.3-.53a9.73,9.73,0,0,1-2.09-1.2L8,610.23l-1.3.53-1.5.6a1.15,1.15,0,0,1-.48.1,1.32,1.32,0,0,1-1.14-.66l-.56-1a1.33,1.33,0,0,1,.33-1.69l1.27-1,1.09-.85-.17-1.39a12.32,12.32,0,0,1-.08-1.25c0-.33,0-.7.08-1.21l.17-1.41-1.09-.86-1.27-1A1.33,1.33,0,0,1,3,597.52l.56-1A1.32,1.32,0,0,1,5.17,596l1.5.6,1.27.52,1.1-.83A9.62,9.62,0,0,1,11.16,595l1.3-.53.2-1.38.23-1.59a1.32,1.32,0,0,1,1.3-1.12h1.1a1.31,1.31,0,0,1,1.3,1.13l.22,1.58.2,1.38,1.3.53a9.91,9.91,0,0,1,2.08,1.2l1.12.87,1.3-.53,1.5-.6a1.38,1.38,0,0,1,.49-.1,1.3,1.3,0,0,1,1.13.66l.56,1a1.3,1.3,0,0,1-.32,1.68l-1.26,1-1.09.86.17,1.39a8.94,8.94,0,0,1,.08,1.23,11.46,11.46,0,0,1-.08,1.22l-.17,1.4,1.09.86,1.27,1A1.33,1.33,0,0,1,26.51,609.82Z"/><path class="cls-1" d="M11.62,564.83a1.23,1.23,0,0,0,1.23,1.22h3.82a1.22,1.22,0,0,0,1.22-1.22v-11.7l.14-.19s7.11-9.17,11-14.12a1.22,1.22,0,0,0,.14-1.28,1.2,1.2,0,0,0-1.1-.68H1.46a1.22,1.22,0,0,0-1,2l11,14.12.14.19v11.7Zm-7-24.41-.88-1.12h22l-.89,1.12-9.57,12-.54.67-.54-.68Z"/><polygon class="cls-1" points="10.38 234.2 0.13 234.2 0.13 237.12 10.38 237.12 10.38 241.5 16.21 235.66 10.38 229.81 10.38 234.2"/><polygon class="cls-1" points="19.12 225.43 19.12 221.04 13.29 226.89 19.12 232.73 19.12 228.35 29.36 228.35 29.36 225.43 19.12 225.43"/><rect class="cls-1" x="15.44" y="17.22" width="6.45" height="6.45"/><path class="cls-1" d="M28.15,5.57A2.45,2.45,0,0,0,25.7,3.13H23.45V0H21.7V3.13H7.8V0H6V3.13H3.79A2.43,2.43,0,0,0,1.37,5.57l0,21.92a2.44,2.44,0,0,0,2.44,2.44H25.7a2.45,2.45,0,0,0,2.45-2.45Zm-1.76,6.26V28.17H3.1v-17H26.39Zm0-6.26V9.39H3.1V4.88H26.39Z"/><path class="cls-1" d="M19.55,185.26,21,187.8A14.35,14.35,0,0,1,16.49,189v-2.95A11.15,11.15,0,0,0,19.55,185.26ZM3.46,176H.51a14.27,14.27,0,0,0,1.22,4.52L4.27,179A11.14,11.14,0,0,1,3.46,176Zm16.09-12.22L21,161.21A14.27,14.27,0,0,0,16.49,160v2.95A11.5,11.5,0,0,1,19.55,163.75Zm7.05,9.3h2.95a14.21,14.21,0,0,0-1.23-4.52L25.78,170A11.32,11.32,0,0,1,26.6,173.05ZM10.5,185.26,9.05,187.8A14.35,14.35,0,0,0,13.57,189v-2.95A11.32,11.32,0,0,1,10.5,185.26Zm3.07-22.32V160a14.2,14.2,0,0,0-4.52,1.22l1.45,2.54A11.68,11.68,0,0,1,13.57,162.94Zm10.74,4.52L26.85,166a14.89,14.89,0,0,0-3.31-3.32l-1.48,2.54A11.7,11.7,0,0,1,24.31,167.46ZM4.27,170l-2.54-1.45a14.2,14.2,0,0,0-1.22,4.52h3A11.3,11.3,0,0,1,4.27,170Zm22.33,6a11.15,11.15,0,0,1-.82,3.06l2.54,1.46A14.35,14.35,0,0,0,29.55,176Zm-4.52,7.82,1.47,2.54A14.85,14.85,0,0,0,26.86,183l-2.54-1.48A11.65,11.65,0,0,1,22.08,183.79ZM8,165.23l-1.46-2.56A14.94,14.94,0,0,0,3.21,166l2.54,1.48A10.81,10.81,0,0,1,8,165.23ZM5.75,181.56,3.21,183a14.85,14.85,0,0,0,3.31,3.31L8,183.79A11.27,11.27,0,0,1,5.75,181.56Zm10.74-14.35H13.57v7.9l6.26,6.26,2.06-2.06-5.4-5.4Z"/></g></g></svg>